<svg width="33" height="37" viewBox="0 0 33 37" fill="none" xmlns="http://www.w3.org/2000/svg">
<path fill-rule="evenodd" clip-rule="evenodd" d="M10.1229 8.56764C11.0743 8.56764 11.8456 7.80135 11.8456 6.85608C11.8456 5.91082 11.0743 5.14453 10.1229 5.14453C9.17154 5.14453 8.40029 5.91082 8.40029 6.85608C8.40029 7.80135 9.17154 8.56764 10.1229 8.56764ZM16.5484 13.0721C17.8962 13.0721 18.9888 11.9865 18.9888 10.6474C18.9888 9.30823 17.8962 8.22266 16.5484 8.22266C15.2006 8.22266 14.108 9.30823 14.108 10.6474C14.108 11.9865 15.2006 13.0721 16.5484 13.0721ZM16.5484 27.7771C17.8962 27.7771 18.9888 26.6916 18.9888 25.3524C18.9888 24.0133 17.8962 22.9277 16.5484 22.9277C15.2007 22.9277 14.108 24.0133 14.108 25.3524C14.108 26.6916 15.2007 27.7771 16.5484 27.7771ZM18.2711 34.2897C18.2711 35.2349 17.4998 36.0012 16.5485 36.0012C15.5971 36.0012 14.8258 35.2349 14.8258 34.2897C14.8258 33.3444 15.5971 32.5781 16.5485 32.5781C17.4998 32.5781 18.2711 33.3444 18.2711 34.2897ZM22.9279 30.8801C23.8792 30.8801 24.6505 30.1138 24.6505 29.1686C24.6505 28.2233 23.8792 27.457 22.9279 27.457C21.9765 27.457 21.2052 28.2233 21.2052 29.1686C21.2052 30.1138 21.9765 30.8801 22.9279 30.8801ZM30.9039 17.8795C30.9039 18.8248 30.1326 19.5911 29.1813 19.5911C28.2299 19.5911 27.4586 18.8248 27.4586 17.8795C27.4586 16.9343 28.2299 16.168 29.1813 16.168C30.1326 16.168 30.9039 16.9343 30.9039 17.8795ZM24.6505 6.85608C24.6505 7.80135 23.8792 8.56764 22.9279 8.56764C21.9765 8.56764 21.2052 7.80135 21.2052 6.85608C21.2052 5.91082 21.9765 5.14453 22.9279 5.14453C23.8792 5.14453 24.6505 5.91082 24.6505 6.85608ZM10.1407 24.0994C11.4885 24.0994 12.5811 23.0138 12.5811 21.6747C12.5811 20.3356 11.4885 19.25 10.1407 19.25C8.79293 19.25 7.70033 20.3356 7.70033 21.6747C7.70033 23.0138 8.79293 24.0994 10.1407 24.0994ZM3.21412 8.37565C4.03804 8.84829 4.32034 9.89506 3.84465 10.7137C3.36896 11.5323 2.31541 11.8128 1.49149 11.3402C0.667564 10.8675 0.385267 9.82075 0.86096 9.00213C1.33665 8.1835 2.3902 7.90302 3.21412 8.37565Z" fill="#0277BD"/>
<path opacity="0.5" fill-rule="evenodd" clip-rule="evenodd" d="M18.1181 2.41868C18.2167 2.20314 18.2716 1.96372 18.2716 1.71155C18.2716 0.766288 17.5003 0 16.5489 0C15.5975 0 14.8263 0.766288 14.8263 1.71155C14.8263 2.65682 15.5975 3.42311 16.5489 3.42311C16.9344 3.42311 17.2903 3.2973 17.5773 3.08476L22.7281 7.20781L29.0416 9.61942C28.9899 9.98445 29.056 10.3687 29.2558 10.7127C29.4498 11.0465 29.7398 11.2908 30.0711 11.4311L29.0947 16.1682C29.1235 16.1667 29.1525 16.166 29.1817 16.166C29.4532 16.166 29.7101 16.2284 29.9385 16.3396L30.9238 11.56C31.1583 11.5362 31.3916 11.4639 31.609 11.3392C32.4329 10.8666 32.7152 9.81979 32.2395 9.00116C31.7638 8.18254 30.7103 7.90206 29.8864 8.37469C29.6789 8.49371 29.5058 8.64914 29.3704 8.82817L23.1633 6.4572L18.1181 2.41868ZM11.0917 30.5159C10.7994 30.7429 10.4315 30.8782 10.0317 30.8782C9.08033 30.8782 8.30908 30.1119 8.30908 29.1666C8.30908 28.2214 9.08033 27.4551 10.0317 27.4551C10.9831 27.4551 11.7543 28.2214 11.7543 29.1666C11.7543 29.4047 11.7054 29.6313 11.6171 29.8373L15.4692 32.9539C15.2437 33.1344 15.0649 33.3701 14.9536 33.6404L11.0917 30.5159ZM16.5488 22.9258C16.4079 22.9258 16.2699 22.9376 16.1356 22.9604L16.1474 20.3929C14.9906 20.2027 14.1084 19.2042 14.1084 18.0009C14.1084 16.6617 15.201 15.5762 16.5488 15.5762C17.8966 15.5762 18.9892 16.6617 18.9892 18.0009C18.9892 19.1838 18.1366 20.1688 17.0088 20.3826L16.9969 22.9666C16.8516 22.9398 16.7019 22.9258 16.5488 22.9258ZM18.2986 27.0407C18.499 26.8358 18.6634 26.5959 18.7814 26.331L21.6124 28.0619C21.4265 28.2803 21.2946 28.5456 21.2374 28.8374L18.2986 27.0407ZM18.849 11.4594L21.0858 12.7665C21.5335 12.2359 22.2056 11.8984 22.957 11.8984C24.3048 11.8984 25.3974 12.984 25.3974 14.3231C25.3974 15.6623 24.3048 16.7478 22.957 16.7478C21.6092 16.7478 20.5166 15.6623 20.5166 14.3231C20.5166 14.0376 20.5663 13.7635 20.6575 13.5091L18.4214 12.2023C18.6052 11.984 18.7511 11.733 18.849 11.4594ZM14.2492 11.461L12.0143 12.769C11.5667 12.2369 10.8937 11.8984 10.1411 11.8984C8.79329 11.8984 7.70068 12.984 7.70068 14.3231C7.70068 15.6623 8.79329 16.7478 10.1411 16.7478C11.4889 16.7478 12.5815 15.6623 12.5815 14.3231C12.5815 14.0387 12.5322 13.7657 12.4416 13.5121L14.6774 12.2037C14.4933 11.9854 14.3472 11.7346 14.2492 11.461ZM5.7021 17.9694C5.7021 18.9146 4.93085 19.6809 3.97947 19.6809C3.02809 19.6809 2.25684 18.9146 2.25684 17.9694C2.25684 17.0241 3.02809 16.2578 3.97947 16.2578C4.93085 16.2578 5.7021 17.0241 5.7021 17.9694ZM22.957 24.0994C24.3048 24.0994 25.3974 23.0138 25.3974 21.6747C25.3974 20.3356 24.3048 19.25 22.957 19.25C21.6092 19.25 20.5166 20.3356 20.5166 21.6747C20.5166 23.0138 21.6092 24.0994 22.957 24.0994Z" fill="#0277BD"/>
</svg>
